HIERARCHY
ROOT pelvis
{
	OFFSET 0.000000 0.000000 0.000000
	CHANNELS 6 Xposition Yposition Zposition Zrotation Xrotation Yrotation
	JOINT lfemur
	{
		OFFSET 11.446000 0.000000 0.000000
		CHANNELS 3 Zrotation Xrotation Yrotation
		JOINT ltibia
		{
			OFFSET 0.000000 -42.030400 0.000000
			CHANNELS 3 Zrotation Xrotation Yrotation
			JOINT lfoot
			{
				OFFSET 0.000000 -39.930200 0.000000
				CHANNELS 3 Zrotation Xrotation Yrotation
				JOINT ltoes
				{
					OFFSET 0.000000 0.000000 11.775800
					CHANNELS 3 Zrotation Xrotation Yrotation
					End Site
					{
					    OFFSET 0.000000 0.000000 5.000000
					}
				}
			}
		}
	}
	JOINT rfemur
	{
		OFFSET -11.446000 0.000000 0.000000
		CHANNELS 3 Zrotation Xrotation Yrotation
		JOINT rtibia
		{
			OFFSET 0.000000 -42.030400 0.000000
			CHANNELS 3 Zrotation Xrotation Yrotation
			JOINT rfoot
			{
				OFFSET 0.000000 -39.930200 0.000000
				CHANNELS 3 Zrotation Xrotation Yrotation
				JOINT rtoes
				{
					OFFSET 0.000000 0.000000 11.775800
					CHANNELS 3 Zrotation Xrotation Yrotation
					End Site
					{
					    OFFSET 0.000000 0.000000 5.000000
					}
				}
			}
		}
	}
	JOINT thorax
	{
		OFFSET 0.000000 11.255600 -5.000000
		CHANNELS 3 Zrotation Xrotation Yrotation
		JOINT head
		{
			OFFSET 0.000000 43.799300 0.000000
			CHANNELS 3 Zrotation Xrotation Yrotation
			End Site
			{
			    OFFSET 0.000000 5.000000 0.000000
			}
		}
		JOINT lclavicle
		{
			OFFSET 0.000000 39.863000 0.000000
			CHANNELS 3 Zrotation Xrotation Yrotation
			JOINT lhumerus
			{
				OFFSET 17.380600 4.958300 0.000000
				CHANNELS 3 Zrotation Xrotation Yrotation
				JOINT lradius
				{
					OFFSET 0.000000 -27.561300 0.000000
					CHANNELS 3 Zrotation Xrotation Yrotation
					JOINT lhand
					{
						OFFSET 0.000000 -26.933000 0.000000
						CHANNELS 3 Zrotation Xrotation Yrotation
						End Site
						{
						    OFFSET 0.000000 -5.000000 0.000000
						}
					}
				}
			}
		}
		JOINT rclavicle
		{
			OFFSET 0.000000 39.863000 0.000000
			CHANNELS 3 Zrotation Xrotation Yrotation
			JOINT rhumerus
			{
				OFFSET -17.380600 4.958300 0.000000
				CHANNELS 3 Zrotation Xrotation Yrotation
				JOINT rradius
				{
					OFFSET 0.000000 -27.561300 0.000000
					CHANNELS 3 Zrotation Xrotation Yrotation
					JOINT rhand
					{
						OFFSET 0.000000 -26.933000 0.000000
						CHANNELS 3 Zrotation Xrotation Yrotation
						End Site
						{
						    OFFSET 0.000000 -5.000000 0.000000
						}
					}
				}
			}
		}
	}
}
MOTION
Frames: 14
Frame Time:	0.0333333
-8.298500 86.639600 -17.987000 13.323429 12.075839 -9.164838 7.160363 -22.947380 -9.066743 -0.000000 32.138881 -0.000000 -0.000000 24.230597 -13.099134 0.000000 -1.976876 -0.000000 -18.700088 -27.218929 -9.326265 0.000000 35.229853 -0.000000 -0.000000 -3.934213 -3.941953 -0.000000 -29.577167 -0.000000 -3.842718 7.987898 -0.528549 13.180369 16.033171 -15.519983 -16.748170 -0.000000 7.329632 37.825984 0.787616 -23.992503 -180.000036 -58.321211 169.566686 6.297150 -10.375522 0.000000 5.293274 0.000000 2.187256 -60.413564 -1.299397 -73.105403 179.999991 -86.888478 145.530941 -29.327893 6.540267 -0.000000 
-8.358500 86.744100 -17.210400 12.923006 11.457651 -10.128719 7.392117 -21.321328 -9.156117 -0.000000 32.039854 -0.000000 -0.000000 23.412904 -11.991446 0.000000 -1.961462 -0.000000 -18.004424 -26.177482 -8.688223 -0.000000 34.590080 -0.000000 -0.000000 -3.527602 -3.268776 -0.000000 -29.579383 -0.000000 -4.557730 8.033904 -1.355441 14.453902 15.911947 -15.102154 -16.285104 -0.000000 6.939854 37.687216 1.772748 -23.615835 180.000036 -58.667489 168.537871 6.688868 -10.421816 -0.000000 7.343838 0.000000 0.728454 -58.955046 1.540011 -75.992577 -180.000019 -82.942767 150.494389 -31.244226 7.182812 0.000000 
-8.301300 86.780900 -16.260100 12.325931 10.589835 -11.398319 7.709840 -19.786191 -9.602456 -0.000000 32.893880 0.000000 0.000000 22.791140 -11.557335 -0.000000 -1.945095 -0.000000 -17.169796 -24.875417 -8.031408 -0.000000 33.893253 0.000000 0.000000 -3.244093 -2.534365 -0.000000 -29.580005 -0.000000 -4.863452 8.019447 -2.068957 15.008137 16.485104 -14.524690 -16.048817 0.000000 6.675694 38.228530 2.512453 -23.506652 -180.000037 -58.678310 168.611646 6.774675 -10.680721 0.000000 8.856915 0.000000 -1.061143 -57.326767 3.429009 -79.701431 180.000035 -79.313508 153.554509 -31.672256 7.320041 -0.000000 
-8.095800 86.698000 -15.313400 12.018698 9.711513 -13.206528 8.040744 -18.678297 -9.215720 -0.000000 34.455620 -0.000000 0.000000 21.796563 -11.951551 -0.000000 -1.915386 -0.000000 -16.643121 -23.886632 -6.777125 -0.000000 33.391306 -0.000000 -0.000000 -3.271812 -1.689888 -0.000000 -29.580924 -0.000000 -5.338749 7.961124 -2.492588 15.274879 17.330325 -13.683457 -15.798018 0.000000 6.656968 38.872192 2.615987 -23.299989 -180.000037 -58.642669 167.407512 6.667663 -10.889931 0.000000 10.263825 0.000000 -2.782254 -56.185508 5.230491 -83.005995 180.000031 -76.163445 156.872473 -33.503026 7.934905 0.000000 
-7.676900 86.507700 -14.478100 11.812215 9.018236 -14.904332 8.464693 -17.929228 -8.716482 0.000000 35.855950 0.000000 0.000000 19.675683 -12.842341 -0.000000 -1.893523 0.000000 -16.563643 -23.332430 -5.876433 -0.000000 33.324309 -0.000000 0.000000 -3.563141 -0.719418 0.000000 -29.582935 -0.000000 -5.847230 7.794842 -3.251936 15.245612 18.059362 -12.207871 -15.532158 -0.000000 6.843280 39.482975 2.583967 -23.031843 180.000037 -58.521535 166.272298 6.254394 -11.410213 -0.000000 12.023290 0.000000 -4.744958 -55.652961 6.337266 -85.785723 -180.000030 -73.249346 160.663417 -35.298256 8.538851 0.000000 
-6.981100 86.283000 -13.686500 11.617857 8.551076 -16.428276 8.936455 -17.203180 -8.476980 0.000000 35.518012 -0.000000 0.000000 17.773626 -11.557065 -0.000000 -1.907383 0.000000 -16.880686 -23.249843 -5.469678 -0.000000 33.680913 0.000000 0.000000 -3.457936 0.638063 -0.000000 -29.586832 -0.000000 -5.999884 7.480178 -3.804502 15.018872 18.678178 -11.272005 -15.217967 0.000000 6.257206 39.764769 2.924456 -22.504086 180.000037 -58.346015 166.294252 5.865709 -11.156823 0.000000 13.143940 0.000000 -6.690063 -54.516573 7.422054 -88.642644 180.000036 -70.510435 163.821831 -35.722708 8.675204 0.000000 
-6.033400 85.951900 -12.967300 11.475741 8.014271 -18.016669 9.272197 -16.116391 -8.852053 0.000000 33.437912 -0.000000 0.000000 16.080227 -8.822402 -0.000000 -1.855919 0.000000 -17.353552 -23.176575 -4.804102 -0.000000 33.921223 -0.000000 0.000000 -3.698078 1.620942 -0.000000 -29.589103 -0.000000 -6.191974 7.521570 -4.719926 14.496021 19.201547 -9.821269 -15.206902 -0.000000 6.057145 40.056002 2.950717 -21.865126 -180.000032 -58.449383 165.804180 5.944326 -10.989441 0.000000 14.387805 -0.000000 -8.295417 -53.214587 7.235955 -90.539394 -180.000037 -67.984621 168.086379 -38.850056 9.733378 -0.000000 
-4.856600 85.550200 -12.225700 11.395769 7.473886 -20.109495 9.574373 -15.088941 -9.356674 0.000000 30.856609 -0.000000 0.000000 14.943920 -7.197393 -0.000000 -1.844447 -0.000000 -17.658658 -23.376720 -3.226859 -0.000000 34.123700 -0.000000 -0.000000 -4.075325 1.851582 -0.000000 -29.592088 -0.000000 -6.456479 7.288032 -4.981402 14.127591 19.952148 -8.694397 -15.146492 -0.000000 5.786702 40.152086 2.781470 -21.657302 180.000031 -58.925373 165.239823 5.817932 -10.712523 0.000000 15.587012 -0.000000 -9.259737 -51.902231 7.398602 -91.270579 180.000036 -66.276038 170.943982 -40.466046 10.276841 -0.000000 
-3.398600 85.062800 -11.434700 11.110571 6.622509 -22.438613 9.575580 -13.811638 -10.917902 -0.000000 28.736876 -0.000000 0.000000 13.008798 -6.329113 -0.000000 -1.831930 -0.000000 -18.152286 -23.714775 -1.705407 -0.000000 34.846908 -0.000000 0.000000 -4.046771 2.667053 -0.000000 -29.596667 0.000000 -6.660099 7.294180 -5.321250 13.683363 20.627845 -7.496769 -14.925946 -0.000000 5.470486 39.664160 3.220923 -21.288451 180.000037 -59.355634 164.190617 5.719135 -10.464074 -0.000000 16.644687 0.000000 -9.345620 -50.419719 7.603398 -90.574932 -180.000037 -65.178437 172.765688 -39.657840 10.002213 -0.000001 
-1.717200 84.483800 -10.480400 10.503105 5.637867 -24.842246 9.420510 -12.547128 -12.899802 0.000000 27.977816 -0.000000 0.000000 9.433122 -5.327706 -0.000000 -1.804288 -0.000000 -18.749490 -23.653198 -0.545520 -0.000000 35.082082 0.000000 -0.000000 -4.022824 4.077299 0.000000 -29.601629 0.000000 -6.536269 7.607272 -5.624140 13.363465 21.159005 -6.501679 -14.565264 0.000000 5.403694 38.915408 3.159219 -21.269582 -180.000033 -60.006010 163.319825 5.549364 -10.421361 0.000000 17.635152 0.000000 -8.951737 -49.153301 7.850243 -88.699290 -180.000037 -64.173051 172.221814 -38.522366 9.615825 -0.000001 
0.224000 83.856800 -9.505800 9.717879 4.828432 -27.189115 9.047384 -11.788008 -14.968095 0.000000 28.829131 -0.000000 -0.000000 5.513292 -4.535545 -0.000000 -1.773778 -0.000000 -19.170727 -23.747398 1.036236 -0.000000 35.142140 0.000000 0.000000 -3.579687 4.736227 -0.000000 -29.606424 -0.000000 -6.314449 7.680362 -5.911301 13.455170 21.802514 -6.151819 -13.891334 -0.000000 5.155481 38.184964 2.948185 -21.852836 -180.000036 -60.959183 162.765308 5.320018 -10.272271 0.000000 18.916419 0.000000 -8.066268 -48.230468 8.300268 -85.524164 -180.000037 -63.676640 174.198694 -37.815192 9.375194 0.000000 
2.423200 83.188700 -8.523200 8.782722 4.002116 -29.648902 8.209744 -11.164883 -17.334165 0.000000 31.251728 -0.000000 0.000000 1.203594 -4.105239 -0.000000 -1.751587 -0.000000 -19.499771 -23.814436 3.160443 -0.000000 34.889180 0.000000 -0.000000 -2.766270 5.093424 0.000000 -29.612534 -0.000000 -6.157265 8.011388 -6.221727 14.259778 22.173256 -6.126867 -12.670793 0.000000 4.724686 37.000631 2.821933 -22.770650 180.000036 -61.737203 162.537373 4.861237 -10.420741 -0.000000 20.359987 0.000000 -7.419653 -47.464406 8.016153 -81.746193 180.000037 -63.105722 174.418961 -36.906443 9.065914 0.000000 
4.897800 82.519200 -7.494300 7.429762 3.416998 -32.171781 7.412434 -10.814526 -19.001748 -0.000000 34.935192 -0.000000 0.000000 -2.975764 -4.166217 0.000000 -1.783537 0.000000 -19.468856 -23.576110 5.679150 0.000000 33.649740 -0.000000 0.000000 -1.384072 5.277784 -0.000000 -29.616635 -0.000000 -5.571295 8.681591 -6.796111 15.443643 22.102691 -5.820432 -11.503588 -0.000000 4.868500 35.928092 1.707835 -24.337138 180.000033 -62.891228 161.897744 4.943804 -10.331785 -0.000000 22.091760 0.000000 -6.827953 -46.779727 7.832970 -77.236840 -180.000037 -62.539506 175.363847 -35.923965 8.730447 -0.000000 
7.761600 81.998300 -6.534000 5.965990 3.217142 -35.044724 6.329174 -11.002715 -20.041066 0.000000 38.720900 0.000000 -0.000000 -6.797821 -3.445596 0.000000 -1.761852 0.000000 -19.604073 -23.214610 7.810674 -0.000000 30.731620 -0.000000 0.000000 1.418530 6.488209 -0.000000 -29.623595 -0.000000 -4.774753 9.379022 -7.404995 17.097407 22.058101 -5.327415 -10.152785 0.000000 3.938964 34.644325 1.606583 -25.543284 180.000034 -63.736199 162.040782 5.114054 -10.152706 0.000000 23.841745 0.000000 -6.503827 -46.159763 7.248989 -71.398233 180.000037 -62.532027 176.745784 -33.769283 7.994397 -0.000000 
